<svg width="420" height="420" viewBox="0 0 420 420" fill="none" xmlns="http://www.w3.org/2000/svg">
<path fill-rule="evenodd" clip-rule="evenodd" d="M198.651 163.067C127.179 186.993 166.443 280.244 229.326 258.159C292.516 235.766 258.774 142.822 198.651 163.067Z" fill="#FFC358"/>
<path fill-rule="evenodd" clip-rule="evenodd" d="M65.5215 351.414C75.6442 353.561 86.9939 352.334 96.8098 347.733C113.988 339.758 109.693 338.838 112.761 319.513C118.282 282.703 142.515 306.936 165.521 287.918L163.067 260.617C144.356 262.458 159.693 260.924 149.571 271.353C133.62 287.304 120.429 271.047 98.0368 285.77C88.2209 347.733 115.521 318.899 65.5215 351.414Z" fill="#FFC358"/>
<path fill-rule="evenodd" clip-rule="evenodd" d="M258.468 130.243C256.321 140.059 252.946 156.623 261.535 159.997C268.59 162.758 267.363 150.795 275.646 145.273C289.756 135.764 307.854 151.102 322.578 133.924C337.916 107.85 302.946 103.249 342.21 76.5622L347.118 72.5745C348.038 71.961 348.958 70.734 349.572 70.1205C350.185 69.507 351.106 68.5868 352.026 67.6665C300.799 67.053 310.615 94.0468 308.468 106.01C303.253 132.083 274.725 118.28 258.468 130.243Z" fill="#FFC358"/>
<path fill-rule="evenodd" clip-rule="evenodd" d="M208.161 68.5886C208.774 94.6621 207.24 88.5272 184.848 115.521C189.756 126.257 196.504 139.754 210.615 139.447C210.921 129.631 209.081 128.097 209.694 113.374C223.191 103.558 232.087 98.6498 236.381 77.791C211.841 40.3679 196.811 69.8156 213.989 10C205.4 13.9877 195.277 22.8834 192.823 37.3005C189.756 56.9322 201.719 62.4537 208.161 68.5886Z" fill="#FFC358"/>
<path fill-rule="evenodd" clip-rule="evenodd" d="M212.146 307.244C179.017 332.397 175.95 343.133 216.134 372.581C215.52 395.28 213.68 391.599 207.852 410.004C255.091 377.489 212.76 359.697 213.066 340.986C217.361 319.513 229.631 321.047 236.072 302.949C231.164 290.373 224.109 279.023 210.919 282.704L212.146 307.244Z" fill="#FFC358"/>
<path fill-rule="evenodd" clip-rule="evenodd" d="M160.92 158.774C157.546 154.173 160.307 156.32 152.945 150.799C149.264 148.345 147.423 148.038 144.662 146.504L142.208 102.333C117.362 90.3695 120.736 99.8786 98.6503 97.4247C82.3926 95.5842 80.5521 79.3266 70.7362 66.75C66.1349 80.2469 71.3496 94.6639 77.7914 102.639C89.141 117.363 98.3435 105.707 112.761 113.682C128.098 122.271 122.27 141.289 126.258 153.559C131.779 171.964 153.865 163.989 160.92 158.774Z" fill="#FFC358"/>
<path fill-rule="evenodd" clip-rule="evenodd" d="M300.798 299.878C292.823 274.112 302.025 239.449 257.854 261.842L276.258 272.578C278.406 295.277 274.418 315.216 289.755 322.271C302.025 327.792 317.056 318.59 335.461 324.111C338.528 329.019 340.676 333.007 343.13 337.301L354.479 351.105C350.185 299.265 333.314 310.921 316.136 308.16C308.774 306.627 301.105 299.878 300.798 299.878Z" fill="#FFC358"/>
<path fill-rule="evenodd" clip-rule="evenodd" d="M10 207.849C14.6012 215.824 9.69326 209.689 15.8282 216.438C23.4969 224.72 37.3006 229.321 45.8896 227.787C61.227 225.333 61.5337 206.928 81.7791 211.53C107.853 217.358 113.988 259.075 140.061 210.609C120.123 206.315 123.19 221.345 104.172 201.1C70.4294 164.904 66.1349 197.419 48.957 209.996C36.0736 219.198 23.4969 210.916 10 207.849Z" fill="#FFC358"/>
<path fill-rule="evenodd" clip-rule="evenodd" d="M282.395 210.612C301.413 213.68 301.106 202.33 316.444 218.281C355.094 257.851 354.174 224.416 372.885 211.226C383.928 203.557 397.732 210.305 410.002 212.453L404.174 203.864C402.947 202.637 397.118 198.342 395.891 197.729C392.517 195.888 382.394 193.127 378.1 193.434C362.149 194.661 362.456 211.226 344.051 210.612C317.671 209.385 306.628 158.772 282.395 210.612Z" fill="#FFC358"/>
<path fill-rule="evenodd" clip-rule="evenodd" d="M180.554 140.057C169.818 102.941 178.713 129.321 176.873 96.4989C166.444 87.91 163.069 85.1493 149.266 82.6953C159.082 99.8731 160.002 93.1247 158.775 122.266C158.161 137.603 169.204 138.216 180.554 140.057Z" fill="#FFC358"/>
<path fill-rule="evenodd" clip-rule="evenodd" d="M291.902 157.236C282.086 168.585 286.994 163.371 280.859 178.094C288.835 177.481 290.369 174.72 296.197 173.493C306.013 171.346 307.853 175.334 316.749 175.641C333.007 176.254 337.301 163.677 340.062 147.727C308.773 164.598 326.872 156.622 291.902 157.236Z" fill="#FFC358"/>
<path fill-rule="evenodd" clip-rule="evenodd" d="M165.829 340.057C178.406 299.566 174.111 325.946 193.129 302.94C192.209 292.204 191.596 291.591 187.301 283.922C176.258 287.603 189.142 289.443 156.32 310.302C156.32 327.173 155.706 334.535 165.829 340.057Z" fill="#FFC358"/>
<path fill-rule="evenodd" clip-rule="evenodd" d="M283.006 236.681C301.104 250.485 283.619 228.092 308.773 258.767C320.429 273.184 331.779 264.595 344.662 260.301C329.325 246.19 331.472 263.982 315.521 240.669C304.785 224.718 299.877 226.865 283.006 236.681Z" fill="#FFC358"/>
<path fill-rule="evenodd" clip-rule="evenodd" d="M131.166 262.759C136.074 255.704 138.221 252.637 139.755 241.594C110.614 254.477 92.5157 228.404 81.166 271.655C91.2887 270.428 93.1292 262.146 104.786 260.612C113.681 259.385 118.896 263.68 131.166 262.759Z" fill="#FFC358"/>
<path fill-rule="evenodd" clip-rule="evenodd" d="M77.1797 162.754C95.8913 169.502 95.5846 162.14 106.934 180.238C117.67 197.723 124.419 191.895 139.143 184.226C138.529 183.613 137.302 181.465 136.689 182.386L122.578 175.024C119.204 172.57 103.867 138.214 77.1797 162.754Z" fill="#FFC358"/>
<path fill-rule="evenodd" clip-rule="evenodd" d="M240.369 283.005C252.026 299.569 244.357 301.41 244.97 325.336C252.639 330.244 260.615 336.992 273.191 335.765L260.921 319.814L263.989 291.287C255.707 283.618 252.946 281.778 240.369 283.005Z" fill="#FFC358"/>
<path fill-rule="evenodd" clip-rule="evenodd" d="M228.098 120.745C231.472 133.628 229.018 129.027 236.38 137.309C236.993 136.696 237.607 134.242 237.914 134.855L240.674 130.254C250.49 113.996 280.858 108.475 257.852 79.6406C251.411 90.6835 256.012 93.751 247.73 102.647C239.754 111.849 237.607 103.874 228.098 120.745Z" fill="#FFC358"/>
</svg>
