<svg width="176" height="60" viewBox="0 0 176 60" fill="none" xmlns="http://www.w3.org/2000/svg">
<path fill-rule="evenodd" clip-rule="evenodd" d="M28.3799 23.2998C18.1695 26.7178 23.7786 40.0394 32.762 36.8843C41.7891 33.6853 36.9688 20.4076 28.3799 23.2998Z" fill="white"/>
<path fill-rule="evenodd" clip-rule="evenodd" d="M9.36328 50.2054C10.8094 50.5121 12.4308 50.3368 13.833 49.6795C16.287 48.5402 15.6735 48.4087 16.1117 45.648C16.9005 40.3895 20.3624 43.8513 23.649 41.1344L23.2984 37.2344C20.6253 37.4973 22.8164 37.2782 21.3703 38.7681C19.0916 41.0468 17.2073 38.7243 14.0083 40.8277C12.6061 49.6795 16.5061 45.5604 9.36328 50.2054Z" fill="white"/>
<path fill-rule="evenodd" clip-rule="evenodd" d="M36.9265 18.605C36.6197 20.0073 36.1377 22.3736 37.3647 22.8556C38.3726 23.25 38.1973 21.541 39.3805 20.7522C41.3962 19.3938 43.9817 21.5848 46.0851 19.1309C48.2762 15.4061 43.2805 14.7488 48.8897 10.9363L49.5908 10.3667C49.7223 10.279 49.8537 10.1037 49.9414 10.0161C50.029 9.92846 50.1605 9.79699 50.2919 9.66553C42.9738 9.57789 44.3761 13.4341 44.0693 15.1432C43.3244 18.8679 39.249 16.896 36.9265 18.605Z" fill="white"/>
<path fill-rule="evenodd" clip-rule="evenodd" d="M29.7367 9.79949C29.8243 13.5243 29.6052 12.6479 26.4062 16.5041C27.1074 18.0378 28.0715 19.966 30.0872 19.9221C30.1311 18.5199 29.8681 18.3008 29.9558 16.1974C31.8839 14.7951 33.1547 14.0939 33.7682 11.1141C30.2625 5.76796 28.1153 9.97477 30.5693 1.42969C29.3423 1.99936 27.8962 3.27017 27.5456 5.32975C27.1074 8.13429 28.8164 8.92307 29.7367 9.79949Z" fill="white"/>
<path fill-rule="evenodd" clip-rule="evenodd" d="M30.3069 43.8953C25.5742 47.4886 25.136 49.0223 30.8765 53.2292C30.7889 56.4719 30.526 55.9461 29.6934 58.5753C36.4418 53.9303 30.3945 51.3887 30.4383 48.7156C31.0518 45.6481 32.8047 45.8672 33.7249 43.2818C33.0238 41.4851 32.0159 39.8638 30.1316 40.3896L30.3069 43.8953Z" fill="white"/>
<path fill-rule="evenodd" clip-rule="evenodd" d="M22.9889 22.6853C22.5068 22.028 22.9012 22.3348 21.8495 21.546C21.3237 21.1954 21.0607 21.1516 20.6663 20.9325L20.3158 14.6223C16.7663 12.9133 17.2483 14.2717 14.0932 13.9212C11.7706 13.6582 11.5077 11.3357 10.1054 9.53906C9.44813 11.4672 10.1931 13.5268 11.1133 14.6661C12.7347 16.7695 14.0494 15.1043 16.1089 16.2437C18.3 17.4707 17.4674 20.1876 18.0371 21.9404C18.8259 24.5696 21.981 23.4303 22.9889 22.6853Z" fill="white"/>
<path fill-rule="evenodd" clip-rule="evenodd" d="M42.9709 42.8375C41.8316 39.1566 43.1462 34.2048 36.8359 37.4037L39.4652 38.9374C39.772 42.1802 39.2023 45.0286 41.3933 46.0364C43.1462 46.8252 45.2934 45.5106 47.9227 46.2994C48.3609 47.0005 48.6677 47.5702 49.0182 48.1837L50.6396 50.1556C50.0261 42.7499 47.6159 44.4151 45.162 44.0207C44.1103 43.8016 43.0147 42.8375 42.9709 42.8375Z" fill="white"/>
<path fill-rule="evenodd" clip-rule="evenodd" d="M1.42969 29.6915C2.08701 30.8309 1.38587 29.9545 2.26229 30.9185C3.35782 32.1017 5.32977 32.759 6.55677 32.5399C8.74783 32.1893 8.79165 29.5601 11.6838 30.2174C15.4086 31.05 16.2851 37.0096 20.0099 30.0859C17.1615 29.4724 17.5997 31.6197 14.8828 28.7275C10.0625 23.5566 9.44897 28.2016 6.99498 29.9983C5.15449 31.3129 3.35782 30.1298 1.42969 29.6915Z" fill="white"/>
<path fill-rule="evenodd" clip-rule="evenodd" d="M40.3438 30.0886C43.0607 30.5268 43.0168 28.9054 45.2079 31.1841C50.7294 36.837 50.5979 32.0605 53.271 30.1762C54.8486 29.0807 56.8205 30.0447 58.5734 30.3515L57.7408 29.1245C57.5655 28.9492 56.7329 28.3357 56.5576 28.2481C56.0756 27.9851 54.6295 27.5908 54.016 27.6346C51.7373 27.8099 51.7811 30.1762 49.1518 30.0886C45.3832 29.9133 43.8056 22.6828 40.3438 30.0886Z" fill="white"/>
<path fill-rule="evenodd" clip-rule="evenodd" d="M25.794 20.007C24.2602 14.7047 25.5311 18.4733 25.2681 13.7844C23.7782 12.5575 23.2962 12.1631 21.3242 11.8125C22.7265 14.2665 22.858 13.3024 22.6827 17.4654C22.595 19.6565 24.1726 19.7441 25.794 20.007Z" fill="white"/>
<path fill-rule="evenodd" clip-rule="evenodd" d="M41.7026 22.46C40.3003 24.0814 41.0014 23.3364 40.125 25.4398C41.2644 25.3522 41.4835 24.9578 42.3161 24.7825C43.7183 24.4758 43.9813 25.0454 45.2521 25.0893C47.5746 25.1769 48.1881 23.3803 48.5825 21.1016C44.1127 23.5117 46.6982 22.3724 41.7026 22.46Z" fill="white"/>
<path fill-rule="evenodd" clip-rule="evenodd" d="M23.6915 48.5817C25.4882 42.7974 24.8747 46.566 27.5916 43.2794C27.4601 41.7457 27.3725 41.658 26.759 40.5625C25.1814 41.0884 27.0219 41.3513 22.3331 44.3311C22.3331 46.7413 22.2454 47.793 23.6915 48.5817Z" fill="white"/>
<path fill-rule="evenodd" clip-rule="evenodd" d="M40.4297 33.816C43.0151 35.788 40.5173 32.5891 44.1107 36.9711C45.7759 39.0307 47.3973 37.8037 49.2377 37.1903C47.0467 35.1745 47.3534 37.7161 45.0747 34.3857C43.541 32.107 42.8399 32.4138 40.4297 33.816Z" fill="white"/>
<path fill-rule="evenodd" clip-rule="evenodd" d="M18.7405 37.5393C19.4416 36.5314 19.7484 36.0932 19.9675 34.5156C15.8045 36.3561 13.219 32.6313 11.5977 38.8101C13.0438 38.6348 13.3067 37.4516 14.9719 37.2325C16.2427 37.0572 16.9877 37.6707 18.7405 37.5393Z" fill="white"/>
<path fill-rule="evenodd" clip-rule="evenodd" d="M11.0273 23.2483C13.7004 24.2124 13.6566 23.1607 15.278 25.7461C16.8117 28.2439 17.7758 27.4113 19.8792 26.3158C19.7916 26.2281 19.6163 25.9214 19.5287 26.0529L17.5129 25.0012C17.0308 24.6506 14.8398 19.7426 11.0273 23.2483Z" fill="white"/>
<path fill-rule="evenodd" clip-rule="evenodd" d="M34.3398 40.4326C36.005 42.7989 34.9095 43.0619 34.9972 46.4799C36.0927 47.181 37.232 48.1451 39.0287 47.9698L37.2759 45.6911L37.7141 41.6158C36.5309 40.5202 36.1365 40.2573 34.3398 40.4326Z" fill="white"/>
<path fill-rule="evenodd" clip-rule="evenodd" d="M32.5859 17.247C33.068 19.0875 32.7174 18.4302 33.7691 19.6133C33.8568 19.5257 33.9444 19.1751 33.9882 19.2628L34.3826 18.6055C35.7849 16.2829 40.1232 15.4942 36.8366 11.375C35.9163 12.9526 36.5737 13.3908 35.3905 14.6616C34.2511 15.9762 33.9444 14.8369 32.5859 17.247Z" fill="white"/>
<rect width="2" height="40" transform="translate(66 10)" fill="white"/>
<path d="M74.72 10.728H88.52V13.416H83.12V24H80.12V13.416H74.72V10.728ZM90.4344 10.728H98.2584C101.378 10.728 103.73 12.816 103.73 15.936C103.73 17.976 102.722 19.512 101.162 20.352L103.202 24H99.9384L98.3784 21.048H93.4344V24H90.4344V10.728ZM93.4344 13.464V18.312H98.1384C99.6744 18.312 100.73 17.472 100.73 15.936C100.73 14.4 99.6744 13.464 98.1384 13.464H93.4344ZM105.669 10.728H117.717V13.44H108.669V15.888H116.805V18.6H108.669V21.24H118.053V24H105.669V10.728ZM120.294 10.728H123.126L131.07 19.656V10.728H134.046V24H131.19L123.246 15.048V24H120.294V10.728ZM136.442 10.728H143.282C146.93 10.728 150.434 13.368 150.434 17.352C150.434 21.336 146.93 24 143.282 24H136.442V10.728ZM139.442 13.44V21.264H143.282C145.682 21.264 147.434 19.632 147.434 17.352C147.434 15.072 145.682 13.44 143.282 13.44H139.442Z" fill="white"/>
<path d="M82.376 37.392L79.904 43.368H85.808L83.408 37.392H82.376ZM80.504 34.728H85.376L91.016 48H87.848L86.984 45.984H78.8L77.936 48H74.72L80.504 34.728ZM105.788 36.384L104.348 38.592C102.788 37.512 101.204 37.08 99.0918 37.08C96.4998 37.08 95.8758 37.752 95.8758 38.496C95.8758 39.264 96.5718 39.456 97.6038 39.576L101.588 40.032C104.42 40.368 106.172 41.568 106.172 44.016C106.172 46.992 103.268 48.336 99.2838 48.336C96.5718 48.336 94.5318 47.76 92.4198 46.2L93.8358 43.872C95.6598 45.144 97.4358 45.72 99.6198 45.72C101.732 45.72 103.268 45.192 103.268 44.064C103.268 43.344 102.884 42.984 101.756 42.864L97.2918 42.36C94.5798 42.048 92.9238 40.992 92.9238 38.52C92.9238 35.712 95.7078 34.416 99.0918 34.416C101.564 34.416 103.724 34.848 105.788 36.384ZM107.603 34.728H121.403V37.416H116.003V48H113.003V37.416H107.603V34.728ZM128.337 37.392L125.865 43.368H131.769L129.369 37.392H128.337ZM126.465 34.728H131.337L136.977 48H133.809L132.945 45.984H124.761L123.897 48H120.681L126.465 34.728ZM138.903 34.728H141.735L149.679 43.656V34.728H152.655V48H149.799L141.855 39.048V48H138.903V34.728ZM162.228 37.392L159.756 43.368H165.66L163.26 37.392H162.228ZM160.356 34.728H165.228L170.868 48H167.7L166.836 45.984H158.652L157.788 48H154.572L160.356 34.728Z" fill="white"/>
</svg>
